<svg width="118" height="41" viewBox="0 0 118 41" fill="none" xmlns="http://www.w3.org/2000/svg">
<path fill-rule="evenodd" clip-rule="evenodd" d="M40.5427 15.107L44.9619 27.2182L49.396 15.107H53.3391L46.6284 31.7188H43.2359L39.3226 22.0747V36.8474C39.3226 38.8211 37.7304 40.421 35.7663 40.421H3.61163C1.64753 40.421 0.0554199 38.8211 0.0554199 36.8325V4.52084C0.0554199 2.54715 1.64753 0.947266 3.61163 0.947266H35.7812C37.7453 0.947266 39.3374 2.54715 39.3374 4.52084V15.107H40.5427ZM15.5748 10.9951C15.5748 9.64943 14.4886 8.61773 13.1792 8.61773C11.8847 8.61773 10.7836 9.64943 10.7836 10.9951C10.7836 12.3408 11.8698 13.3725 13.1792 13.3725C14.4737 13.3725 15.5748 12.3408 15.5748 10.9951ZM25.6334 27.906C25.6334 29.8947 26.794 31.345 29.2342 31.345C31.3174 31.345 32.9839 29.9993 33.8915 26.7697L32.344 26.1716C31.5703 28.3397 30.9007 28.7284 30.3651 28.7284C29.8294 28.7284 29.5467 28.3696 29.5467 27.6668C29.5467 27.3379 29.6211 26.994 29.7252 26.5603L30.8561 22.4784C31.1388 21.5215 31.243 20.6692 31.243 19.8917C31.243 16.8414 29.3979 15.2565 27.1808 15.2565C25.0977 15.2565 22.9848 17.1405 21.9284 19.1291L22.7021 15.5705H16.661L15.8129 18.7105H18.64L16.8991 25.7081C15.545 28.7583 13.0304 28.8181 12.7179 28.7434C12.1971 28.6237 11.8698 28.4294 11.8698 27.7565C11.8698 27.3528 11.9442 26.7996 12.1227 26.1267L14.7713 15.5705H8.06062L7.21248 18.7105H10.0098L8.20941 26.0968C8.0755 26.6949 8.0011 27.3379 8.0011 27.8761C8.0011 29.9694 9.13195 31.36 11.5276 31.36C13.5214 31.36 15.1284 30.1638 16.289 28.2499L15.5748 31.1058H19.5328L21.7944 21.9999C22.3599 19.6973 23.461 18.5011 25.1126 18.5011C26.4071 18.5011 27.2255 19.3235 27.2255 20.6692C27.2255 21.0579 27.1808 21.4766 27.0469 21.9401L25.8863 26.1267C25.7078 26.7398 25.6334 27.3379 25.6334 27.906ZM55.2139 15.107H58.9784V31.5993H55.2139V15.107ZM111.384 14.7631C108.84 14.7631 107.307 16.1088 106.251 17.6638V15.107H102.486V31.5992H106.251V22.299C106.251 19.7421 107.768 18.2021 109.956 18.2021C112.188 18.2021 113.467 19.6674 113.467 22.2242V31.5843H117.232V21.0878C117.232 17.2601 115.089 14.7631 111.384 14.7631ZM82.7414 23.4054C82.7414 18.6656 86.4762 14.7631 91.5055 14.7631C96.5348 14.7631 100.24 18.6058 100.24 23.3456C100.24 28.0556 96.505 31.9581 91.446 31.9581C86.4316 31.9581 82.7414 28.1154 82.7414 23.4054ZM86.506 23.3456C86.506 26.2763 88.5891 28.6836 91.5055 28.6836C94.5409 28.6836 96.4753 26.3211 96.4753 23.4054C96.4753 20.4748 94.3921 18.0675 91.446 18.0675C88.4254 18.0675 86.506 20.4449 86.506 23.3456ZM68.7156 21.775C68.6658 21.7589 68.6162 21.7428 68.5667 21.7267C66.7982 21.1537 65.242 20.6495 65.242 19.5328V19.473C65.242 18.5011 66.0753 17.8133 67.5483 17.8133C68.2626 17.8133 69.0512 17.9778 69.8844 18.2618C69.8844 18.2618 69.8993 18.2618 69.9142 18.2768L69.9143 18.2768C69.9887 18.3067 70.063 18.3366 70.1225 18.3516C70.7177 18.5459 72.3247 18.8001 73.6787 16.6769C71.9229 15.5405 69.691 14.8228 67.6376 14.8228C64.379 14.8228 61.7899 16.7218 61.7899 19.8468V19.9066C61.7899 23.0615 64.498 24.0633 66.9234 24.7511C67.0653 24.7953 67.2063 24.8386 67.3456 24.8815C69.0908 25.4179 70.5838 25.8768 70.5838 27.0537V27.1135C70.5838 28.205 69.6463 28.8928 68.0394 28.8928C66.968 28.8928 65.7925 28.6087 64.6171 28.0555C64.2748 27.906 62.519 27.3079 61.0311 29.461C63.0696 31.0609 65.6437 31.8982 67.9501 31.8982C71.3724 31.8982 74.0358 30.1787 74.0358 26.7098V26.665C74.0358 23.6895 71.3426 22.598 68.947 21.8504C68.8696 21.825 68.7925 21.7999 68.7156 21.775ZM76.5206 15.107H80.2851V31.5993H76.5206V15.107Z" fill="#E0E0E0"/>
</svg>
